<svg xmlns="http://www.w3.org/2000/svg" width="430" height="430" style="width:100%;height:100%;transform:translate3d(0,0,0);content-visibility:visible" viewBox="0 0 430 430"><defs><clipPath id="i"><path d="M0 0h430v430H0z"/></clipPath><clipPath id="p"><path d="M0 0h430v430H0z"/></clipPath><clipPath id="n"><path d="M0 0h430v430H0z"/></clipPath><clipPath id="l"><path d="M0 0h430v430H0z"/></clipPath><clipPath id="j"><path d="M0 0h430v430H0z"/></clipPath><filter id="a" width="100%" height="100%" x="0%" y="0%" filterUnits="objectBoundingBox"><feComponentTransfer in="SourceGraphic"><feFuncA tableValues="1.0 0.0" type="table"/></feComponentTransfer></filter><filter id="c" width="100%" height="100%" x="0%" y="0%" filterUnits="objectBoundingBox"><feComponentTransfer in="SourceGraphic"><feFuncA tableValues="1.0 0.0" type="table"/></feComponentTransfer></filter><filter id="e" width="100%" height="100%" x="0%" y="0%" filterUnits="objectBoundingBox"><feComponentTransfer in="SourceGraphic"><feFuncA tableValues="1.0 0.0" type="table"/></feComponentTransfer></filter><filter id="g" width="100%" height="100%" x="0%" y="0%" filterUnits="objectBoundingBox"><feComponentTransfer in="SourceGraphic"><feFuncA tableValues="1.0 0.0" type="table"/></feComponentTransfer></filter><path id="b" style="display:none"/><path id="d" fill="#F9C9C0" d="M146.5 268.25c42 3 72.5 35.75 71.283 82.778l3.14 32.187 2.756 28.241c.75 7.684 7.209 13.544 14.929 13.544H240c27.614 0 172.298-151.722 168.698-175.893l-18.618-125C387.161 104.508 370.332 90 350.516 90H210l-65 25" style="display:block"/><path id="h" style="display:none"/><path id="f" style="display:none"/><mask id="q" mask-type="alpha"><g filter="url(#a)"><path fill="#fff" d="M0 0h430v430H0z" opacity="0"/><use xmlns:ns1="http://www.w3.org/1999/xlink" ns1:href="#b"/></g></mask><mask id="o" mask-type="alpha"><g filter="url(#c)"><path fill="#fff" d="M0 0h430v430H0z" opacity="0"/><use xmlns:ns2="http://www.w3.org/1999/xlink" ns2:href="#d"/></g></mask><mask id="m" mask-type="alpha"><g filter="url(#e)"><path fill="#fff" d="M0 0h430v430H0z" opacity="0"/><use xmlns:ns3="http://www.w3.org/1999/xlink" ns3:href="#f"/></g></mask><mask id="k" mask-type="alpha"><g filter="url(#g)"><path fill="#fff" d="M0 0h430v430H0z" opacity="0"/><use xmlns:ns4="http://www.w3.org/1999/xlink" ns4:href="#h"/></g></mask></defs><g clip-path="url(#i)"><g clip-path="url(#j)" style="display:none"><path class="secondary" style="display:none"/><g mask="url(#k)" style="mix-blend-mode:multiply;display:none"><path class="secondary"/></g><path class="primary" style="display:none"/><path class="primary" style="mix-blend-mode:multiply;display:none"/></g><g clip-path="url(#l)" style="display:none"><path class="secondary" style="display:none"/><g mask="url(#m)" style="mix-blend-mode:multiply;display:none"><path class="secondary"/></g><path class="primary" style="display:none"/><path class="primary" style="mix-blend-mode:multiply;display:none"/></g><g clip-path="url(#n)" style="display:block"><path fill="#F8C8C0" d="M120 260c37.638 0 69.128 28.568 72.783 66.028l3.14 32.187 2.756 28.241c.75 7.684 7.209 13.544 14.929 13.544H215c27.614 0 50-22.386 50-50v-80h79.134c24.438 0 43.164-21.722 39.564-45.893l-18.618-125C362.161 79.508 345.332 65 325.516 65H185l-65 25" class="secondary" style="display:block"/><g mask="url(#o)" opacity=".5" style="mix-blend-mode:multiply;display:block"><path fill="#F8C8C0" d="M120 260c37.638 0 69.128 28.568 72.783 66.028l3.14 32.187 2.756 28.241c.75 7.684 7.209 13.544 14.929 13.544H215c27.614 0 50-22.386 50-50v-80h79.134c24.438 0 43.164-21.722 39.564-45.893l-18.618-125C362.161 79.508 345.332 65 325.516 65H185l-65 25" class="secondary"/></g><path fill="#F14B00" d="M-32-100a3 3 0 0 0-3 3V97a3 3 0 0 0 3 3h64a3 3 0 0 0 3-3V-97a3 3 0 0 0-3-3z" class="primary" style="display:block" transform="translate(85 175)"/><g opacity=".5" style="mix-blend-mode:multiply;display:block"><path fill="#F14B00" d="M53 75h22v175h45v22a3 3 0 0 1-3 3H53a3 3 0 0 1-3-3V78a3 3 0 0 1 3-3" class="primary" opacity="1"/></g></g><g clip-path="url(#p)" style="display:none"><path class="secondary" style="display:none"/><g mask="url(#q)" style="mix-blend-mode:multiply;display:none"><path class="secondary"/></g><path class="primary" style="display:none"/><path class="primary" style="mix-blend-mode:multiply;display:none"/></g></g></svg>