<svg xmlns="http://www.w3.org/2000/svg" width="430" height="430" style="width:100%;height:100%;transform:translate3d(0,0,0);content-visibility:visible" viewBox="0 0 430 430"><defs><clipPath id="i"><path d="M0 0h430v430H0z"/></clipPath><clipPath id="p"><path d="M0 0h430v430H0z"/></clipPath><clipPath id="n"><path d="M0 0h430v430H0z"/></clipPath><clipPath id="l"><path d="M0 0h430v430H0z"/></clipPath><clipPath id="j"><path d="M0 0h430v430H0z"/></clipPath><filter id="a" width="100%" height="100%" x="0%" y="0%" filterUnits="objectBoundingBox"><feComponentTransfer in="SourceGraphic"><feFuncA tableValues="1.0 0.0" type="table"/></feComponentTransfer></filter><filter id="c" width="100%" height="100%" x="0%" y="0%" filterUnits="objectBoundingBox"><feComponentTransfer in="SourceGraphic"><feFuncA tableValues="1.0 0.0" type="table"/></feComponentTransfer></filter><filter id="e" width="100%" height="100%" x="0%" y="0%" filterUnits="objectBoundingBox"><feComponentTransfer in="SourceGraphic"><feFuncA tableValues="1.0 0.0" type="table"/></feComponentTransfer></filter><filter id="g" width="100%" height="100%" x="0%" y="0%" filterUnits="objectBoundingBox"><feComponentTransfer in="SourceGraphic"><feFuncA tableValues="1.0 0.0" type="table"/></feComponentTransfer></filter><path id="b" style="display:none"/><path id="d" style="display:none"/><path id="h" fill="#F9C9C0" d="M145.75 166.5c37.638 0 76-36.5 72.033-82.528l3.14-32.187 2.756-28.241C224.429 15.86 230.888 10 238.608 10H240c27.614 0 129.134 130 129.134 130 24.438 0 43.164 21.722 39.564 45.893l-18.618 125C387.161 330.492 370.332 345 350.516 345H210l-65-25" style="display:block"/><path id="f" style="display:none"/><mask id="q" mask-type="alpha"><g filter="url(#a)"><path fill="#fff" d="M0 0h430v430H0z" opacity="0"/><use xmlns:ns1="http://www.w3.org/1999/xlink" ns1:href="#b"/></g></mask><mask id="o" mask-type="alpha"><g filter="url(#c)"><path fill="#fff" d="M0 0h430v430H0z" opacity="0"/><use xmlns:ns2="http://www.w3.org/1999/xlink" ns2:href="#d"/></g></mask><mask id="m" mask-type="alpha"><g filter="url(#e)"><path fill="#fff" d="M0 0h430v430H0z" opacity="0"/><use xmlns:ns3="http://www.w3.org/1999/xlink" ns3:href="#f"/></g></mask><mask id="k" mask-type="alpha"><g filter="url(#g)"><path fill="#fff" d="M0 0h430v430H0z" opacity="0"/><use xmlns:ns4="http://www.w3.org/1999/xlink" ns4:href="#h"/></g></mask></defs><g clip-path="url(#i)"><g clip-path="url(#j)" style="display:block"><path fill="#F8C8C0" d="M120 175c37.638 0 69.128-28.568 72.783-66.028l3.14-32.187 2.756-28.241C199.429 40.86 205.888 35 213.608 35H215c27.614 0 50 22.386 50 50v80h79.134c24.438 0 43.164 21.722 39.564 45.893l-18.618 125C362.161 355.492 345.332 370 325.516 370H185l-65-25" class="secondary" style="display:block"/><g mask="url(#k)" opacity=".5" style="mix-blend-mode:multiply;display:block"><path fill="#F8C8C0" d="M120 175c37.638 0 69.128-28.568 72.783-66.028l3.14-32.187 2.756-28.241C199.429 40.86 205.888 35 213.608 35H215c27.614 0 50 22.386 50 50v80h79.134c24.438 0 43.164 21.722 39.564 45.893l-18.618 125C362.161 355.492 345.332 370 325.516 370H185l-65-25" class="secondary"/></g><path fill="#F14B00" d="M-32-100a3 3 0 0 0-3 3V97a3 3 0 0 0 3 3h64a3 3 0 0 0 3-3V-97a3 3 0 0 0-3-3z" class="primary" style="display:block" transform="translate(85 260)"/><g opacity=".5" style="mix-blend-mode:multiply;display:block"><path fill="#F14B00" d="M53 160h22v175h45v22a3 3 0 0 1-3 3H53a3 3 0 0 1-3-3V163a3 3 0 0 1 3-3" class="primary" opacity="1"/></g></g><g clip-path="url(#l)" style="display:none"><path class="secondary" style="display:none"/><g mask="url(#m)" style="mix-blend-mode:multiply;display:none"><path class="secondary"/></g><path class="primary" style="display:none"/><path class="primary" style="mix-blend-mode:multiply;display:none"/></g><g clip-path="url(#n)" style="display:none"><path class="secondary" style="display:none"/><g mask="url(#o)" style="mix-blend-mode:multiply;display:none"><path class="secondary"/></g><path class="primary" style="display:none"/><path class="primary" style="mix-blend-mode:multiply;display:none"/></g><g clip-path="url(#p)" style="display:none"><path class="secondary" style="display:none"/><g mask="url(#q)" style="mix-blend-mode:multiply;display:none"><path class="secondary"/></g><path class="primary" style="display:none"/><path class="primary" style="mix-blend-mode:multiply;display:none"/></g></g></svg>